<svg xmlns="http://www.w3.org/2000/svg" xml:space="preserve" width="800" height="800" viewBox="0 0 60 60"><path d="M58.199 47.02a1.002 1.002 0 0 0-1.18.781C55.903 53.303 51.574 57 46.249 57c-5.028 0-9.446-3.3-10.948-8H40v-2h-8v8h2v-3.848C36.169 55.833 40.915 59 46.249 59c6.304 0 11.42-4.341 12.731-10.801a1 1 0 0 0-.781-1.179zM58 35v4.308C55.75 34.855 51.296 32 46.249 32c-6.109 0-11.541 3.997-13.209 9.721a1 1 0 1 0 1.92.558C36.358 37.482 41.105 34 46.249 34c4.565 0 8.562 2.766 10.33 7H52v2h8v-8h-2z"/><path d="M29 32c0-3.309 2.916-6 6.5-6 1.746 0 3.331.642 4.5 1.68v-9.51l-17 2.684v17.248c0 .013-.007.025-.008.038C22.911 41.383 20.033 44 16.5 44c-3.584 0-6.5-2.691-6.5-6s2.916-6 6.5-6c1.746 0 3.331.642 4.5 1.68V14c0-.492.358-.911.844-.987l19-3a.99.99 0 0 1 .805.228A.995.995 0 0 1 42 11V29.382A16.477 16.477 0 0 1 45.5 29c4.996 0 9.472 2.241 12.5 5.761V2.565C58 1.701 57.299 1 56.435 1H1.565C.701 1 0 1.701 0 2.565v45.869C0 49.299.701 50 1.565 50H29.64a16.392 16.392 0 0 1-.64-4.5c0-3.217.94-6.213 2.539-8.753C29.998 35.648 29 33.932 29 32z"/></svg>